<?xml version="1.0"?><svg width="640" height="480" xmlns="http://www.w3.org/2000/svg">
 <title>nursing</title>
 <g>
  <title>Layer 1</title>
  <g id="g3">
   <path stroke="#000000" fill="#d86e6e" id="path5" d="m294.701996,119.688004c-2.434998,-10.059006 -4.868011,-20.119003 -7.303009,-30.178001c-0.44397,-1.838005 -0.889984,-3.677002 -1.333984,-5.515999c-0.345001,-1.424004 -2.140015,-1.586006 -3.359009,-2.317001c-3.190979,-1.914001 -7.615997,-4.248001 -11.35199,-4.248001c-3.265991,0 -7.444,4.789001 -9.856995,6.800995c-3.301025,2.753006 -4.913025,6.986008 -5.920013,11.026001c-0.983002,3.947006 1.527008,7.807007 -0.250992,11.945007c-1.690002,3.931992 -5.874008,6.886002 -9.768005,8.345993c-8.416,3.154999 -17.330994,3.312004 -25.766998,-0.085999c-3.677994,-1.481003 -7.849991,-3.796997 -9.990005,-7.298004c-2.309998,-3.778992 -1.151993,-8.235992 -1.151993,-12.376999c0,-4.415993 -2.100998,-7.970993 -4.852005,-11.270996c-1.084991,-1.302002 -3.018005,-2.968002 -4.365997,-4.013c-0.862,-0.667999 -4.516998,-3.458 -5.380005,-3.458c-4.17099,0 -8.135986,1.577003 -11.708008,3.722c-0.529984,0.319 -3.631989,1.922005 -3.707001,2.256004c-0.380997,1.687996 -0.763,3.376999 -1.143997,5.065994c-1.42601,6.317001 -2.852997,12.634003 -4.278992,18.951004c-0.593994,2.627998 -1.186996,5.254997 -1.779999,7.882996c-0.164001,0.727005 -1.080002,2.880005 -0.815002,3.612c0.332993,0.924004 2.837997,2.259003 3.580002,2.848999c2.703003,2.151001 5.406006,4.303009 8.109009,6.455002c1.638992,1.305008 5.382996,5.684998 7.597992,5.67601c21.597992,-0.085999 43.195984,-0.172012 64.794998,-0.258011c9.383987,-0.037994 18.76799,-0.074997 28.150986,-0.112c2.51001,-0.009995 2.47403,0.209 3.980988,-1.925995c1.778015,-2.520004 3.557007,-5.039001 5.335022,-7.559006c0.822021,-1.160995 2.281006,-2.576996 2.535004,-3.970993"/>
   <path fill="#d86e6e" stroke="#000000" stroke-width="0.1" stroke-linecap="square" stroke-miterlimit="10" id="path7" d="m294.701996,119.688004c-2.434998,-10.059006 -4.868011,-20.119003 -7.303009,-30.178001c-0.44397,-1.838005 -0.889984,-3.677002 -1.333984,-5.515999c-0.345001,-1.424004 -2.140015,-1.586006 -3.359009,-2.317001c-3.190979,-1.914001 -7.615997,-4.248001 -11.35199,-4.248001c-3.265991,0 -7.444,4.789001 -9.856995,6.800995c-3.301025,2.753006 -4.913025,6.986008 -5.920013,11.026001c-0.983002,3.947006 1.527008,7.807007 -0.250992,11.945007c-1.690002,3.931992 -5.874008,6.886002 -9.768005,8.345993c-8.416,3.154999 -17.330994,3.312004 -25.766998,-0.085999c-3.677994,-1.481003 -7.849991,-3.796997 -9.990005,-7.298004c-2.309998,-3.778992 -1.151993,-8.235992 -1.151993,-12.376999c0,-4.415993 -2.100998,-7.970993 -4.852005,-11.270996c-1.084991,-1.302002 -3.018005,-2.968002 -4.365997,-4.013c-0.862,-0.667999 -4.516998,-3.458 -5.380005,-3.458c-4.17099,0 -8.135986,1.577003 -11.708008,3.722c-0.529984,0.319 -3.631989,1.922005 -3.707001,2.256004c-0.380997,1.687996 -0.763,3.376999 -1.143997,5.065994c-1.42601,6.317001 -2.852997,12.634003 -4.278992,18.951004c-0.593994,2.627998 -1.186996,5.254997 -1.779999,7.882996c-0.164001,0.727005 -1.080002,2.880005 -0.815002,3.612c0.332993,0.924004 2.837997,2.259003 3.580002,2.848999c2.703003,2.151001 5.406006,4.303009 8.109009,6.455002c1.638992,1.305008 5.382996,5.684998 7.597992,5.67601c21.597992,-0.085999 43.195984,-0.172012 64.794998,-0.258011c9.280991,-0.037003 18.563004,-0.07399 27.844986,-0.110992c1.799988,-0.007004 2.632996,0.416992 3.663025,-1.042999c2.830994,-4.01001 5.661987,-8.021004 8.492981,-12.032005"/>
   <path stroke="#000000" fill="#d86e6e" id="path9" d="m228.626007,143.505005c-3.505997,-3.024002 -9.653992,-2.874008 -13.988007,-2.334015c-4.962982,0.617004 -10.375,0.028015 -15.37999,0.028015c-5.056992,0 -10.147995,-0.102997 -15.193008,-0.382004c-2.603989,-0.143997 -14.328995,-1.082001 -9.604996,-5.762009c-4.658997,2.326004 -16.862,2.427002 -16.136002,-5.37999c-3.898987,1.113998 -7.882996,1.582001 -11.910995,0.768997c-2.675995,-0.541 -10.425995,-2.895996 -7.296997,-6.914001c-3.863007,-0.242004 -23.710007,-1.908997 -16.519005,-9.988998c-3.767998,-0.565002 -7.973999,-1.873001 -11.382996,-3.578003c-3.455002,-1.727997 -7.548004,-3.052994 -10.372002,-5.881996c-1.530998,-1.535004 -3.014999,-2.989998 -0.230003,-4.105003c2.392006,-0.959 4.648003,-1.033997 7.201004,-1.033997c4.792,0 9.441002,0.253998 14.258003,0.054001c17.83699,-0.744003 34.917999,-5.341003 50.850006,-13.306c1.92099,-0.960007 3.84198,-1.921005 5.763,-2.881004c-2.850006,3.659004 2.804993,6.038002 5.521988,6.489998c3.147995,0.524002 6.494003,-0.123993 9.460999,-1.112c0,2.817001 -0.222,5.157005 1.917999,7.299004c1.391006,1.391998 4.66301,2.042 6.530014,1.153999c0.523987,4.189003 0.813995,8.651001 3.034988,12.356003c2.436996,4.062996 5.404007,7.033997 9.417999,9.543999c5.918991,3.700005 16.382996,5.062004 22.507996,4.222c6.947006,-0.952003 17.334,-3.945 20.826004,-10.920998c2.209015,-4.413002 3.354004,-8.501007 4.003021,-13.382004c0.266968,-2.009003 2.358978,-0.684998 3.980988,-1.052002c1.640991,-0.371994 3.769012,-1.730995 4.324982,-3.371994c0.627014,-1.852005 0.605011,-3.173004 0.289001,-5.079002c4.986023,0.829994 17.557007,2.971001 15.366028,-5.762001c8.178986,4.088997 16.267975,7.865997 24.888,10.947998c8.356995,2.987999 17.617004,4.003998 26.412964,4.840004c4.368011,0.415001 8.850037,0.825996 13.235016,0.729996c4.311981,-0.094002 9.446014,-0.985001 13.528015,0.649002c4.800995,1.922005 -3.654022,6.741005 -5.462006,7.803001c-3.289001,1.932999 -7.138,3.080994 -10.752014,4.223999c-1.941986,0.613998 -3.748993,1.136002 -5.763,1.539001c3.200012,3.335999 -0.302002,6.785995 -3.48999,7.981995c-4.221985,1.584 -8.567017,1.727005 -13.03302,2.005005c3.104004,3.960999 -4.732971,6.494003 -7.402985,6.876007c-4.283997,0.612 -7.996979,0.319 -12.188019,-0.729004c1.957031,3.644989 -3.878967,5.855988 -6.227966,6.79599c-2.791992,1.115997 -7.038025,-0.173996 -9.522034,-1.417999c1.744019,3.171997 0.204041,3.682007 -2.773987,4.875c-2.234009,0.895996 -5.48999,0.730011 -7.872986,0.947006c-5.936005,0.539001 -12.02002,0.710007 -17.981995,0.710007c-5.530014,0 -11.116013,-0.386017 -16.675018,-0.386017c-2.543991,0 -5.329987,0.115005 -7.709991,1.154007c-1.568008,0.685013 -1.311996,1.164993 -3.098999,1.065002c-1.780014,-0.099991 -3.565018,-0.199997 -5.350006,-0.298996"/>
   <path fill="#d86e6e" stroke="#000000" stroke-width="0.1" stroke-linecap="square" stroke-miterlimit="10" id="path11" d="m228.626007,143.505005c-3.505997,-3.024002 -9.653992,-2.874008 -13.988007,-2.334015c-4.962982,0.617004 -10.375,0.028015 -15.37999,0.028015c-5.056992,0 -10.147995,-0.102997 -15.193008,-0.382004c-2.603989,-0.143997 -14.328995,-1.082001 -9.604996,-5.762009c-4.658997,2.326004 -16.862,2.427002 -16.136002,-5.37999c-3.898987,1.113998 -7.882996,1.582001 -11.910995,0.768997c-2.675995,-0.541 -10.425995,-2.895996 -7.296997,-6.914001c-3.863007,-0.242004 -23.710007,-1.908997 -16.519005,-9.988998c-3.767998,-0.565002 -7.973999,-1.873001 -11.382996,-3.578003c-3.455002,-1.727997 -7.548004,-3.052994 -10.372002,-5.881996c-1.530998,-1.535004 -3.014999,-2.989998 -0.230003,-4.105003c2.392006,-0.959 4.648003,-1.033997 7.201004,-1.033997c4.792,0 9.441002,0.253998 14.258003,0.054001c17.83699,-0.744003 34.917999,-5.341003 50.850006,-13.306c1.92099,-0.960007 3.84198,-1.921005 5.763,-2.881004c-2.850006,3.659004 2.804993,6.038002 5.521988,6.489998c3.147995,0.524002 6.494003,-0.123993 9.460999,-1.112c0,2.817001 -0.222,5.157005 1.917999,7.299004c1.391006,1.391998 4.66301,2.042 6.530014,1.153999c0.523987,4.189003 0.813995,8.651001 3.034988,12.356003c2.436996,4.062996 5.404007,7.033997 9.417999,9.543999c5.918991,3.700005 16.382996,5.062004 22.507996,4.222c6.947006,-0.952003 17.334,-3.945 20.826004,-10.920998c2.209015,-4.413002 3.354004,-8.501007 4.003021,-13.382004c0.266968,-2.009003 2.358978,-0.684998 3.980988,-1.052002c1.640991,-0.371994 3.769012,-1.730995 4.324982,-3.371994c0.627014,-1.852005 0.605011,-3.173004 0.289001,-5.079002c4.986023,0.829994 17.557007,2.971001 15.366028,-5.762001c8.178986,4.088997 16.267975,7.865997 24.888,10.947998c8.356995,2.987999 17.617004,4.003998 26.412964,4.840004c4.368011,0.415001 8.850037,0.825996 13.235016,0.729996c4.311981,-0.094002 9.446014,-0.985001 13.528015,0.649002c4.800995,1.922005 -3.654022,6.741005 -5.462006,7.803001c-3.289001,1.932999 -7.138,3.080994 -10.752014,4.223999c-1.941986,0.613998 -3.748993,1.136002 -5.763,1.539001c3.200012,3.335999 -0.302002,6.785995 -3.48999,7.981995c-4.221985,1.584 -8.567017,1.727005 -13.03302,2.005005c3.104004,3.960999 -4.732971,6.494003 -7.402985,6.876007c-4.283997,0.612 -7.996979,0.319 -12.188019,-0.729004c1.957031,3.644989 -3.878967,5.855988 -6.227966,6.79599c-2.791992,1.115997 -7.038025,-0.173996 -9.522034,-1.417999c1.744019,3.171997 0.204041,3.682007 -2.773987,4.875c-2.234009,0.895996 -5.48999,0.730011 -7.872986,0.947006c-5.936005,0.539001 -12.02002,0.710007 -17.981995,0.710007c-5.530014,0 -11.116013,-0.386017 -16.675018,-0.386017c-2.543991,0 -5.329987,0.115005 -7.709991,1.154007c-1.568008,0.685013 -1.311996,1.164993 -3.098999,1.065002c-1.780014,-0.099991 -3.565018,-0.199997 -5.350006,-0.298996"/>
   <path stroke="#000000" fill="#d86e6e" id="path13" d="m226.705994,246.462997c1.313004,0.156998 1.874008,-2.203995 2.690002,-3.07399c1.372009,-1.462006 3.253006,-2.55101 4.908997,-3.656006c3.169006,-2.115997 6.494003,-4.541 9.833008,-6.214005c3.686996,-1.847 7.020996,-3.500992 9.843994,-6.649002c0.798004,-0.889999 5.843994,-9.987991 3.546997,-9.987991c-2.746994,0 -5.494995,0 -8.241989,0c-3.497009,0 -2.229004,0.022003 -3.777008,2.597c-2.210999,3.675003 -5.437988,6.528992 -9.197998,8.543991c-7.416992,3.975006 -14.01799,7.660004 -17.938004,15.512009c-1.289001,2.582001 -0.888992,5.511002 -0.888992,8.30899c3.201004,-1.664993 6.401993,-3.330994 9.604004,-4.995987c-0.129013,-0.130005 -0.255997,-0.257004 -0.383011,-0.38501"/>
   <path fill="#d86e6e" stroke="#000000" stroke-width="0.1" stroke-linecap="square" stroke-miterlimit="10" id="path15" d="m245.917007,216.496002c0,8.296005 -10.625992,11.563004 -16.520996,14.981995c-3.110001,1.804001 -7.098007,5.182999 -8.955002,8.268005c-2.515991,4.179993 -2.957001,7.283997 -2.957001,12.095993"/>
   <path fill="#d86e6e" stroke="#000000" stroke-width="0.1" stroke-linecap="square" stroke-miterlimit="10" id="path17" d="m226.705994,246.462997c1.313004,0.156998 1.874008,-2.203995 2.690002,-3.07399c1.272003,-1.355011 3.046997,-2.46701 4.610001,-3.457001c3.156006,-1.999008 6.337997,-4.513 9.604004,-6.14801c7.102997,-3.55899 14.212021,-8.067993 14.212021,-16.901993"/>
   <path stroke="#000000" fill="#d86e6e" id="path19" d="m227.475006,271.815979c-0.197998,-3.559998 4.621002,-7.687988 6.91301,-9.987976c-2.180008,-1.032013 -4.361008,-2.065002 -6.541,-3.098022c-1.544006,-0.730988 -2.854004,2.123016 -3.915009,3.183014c-2.380005,2.377991 -4.850006,6.838989 -4.527008,10.287994c2.690002,-0.127991 5.380005,-0.256989 8.070007,-0.38501"/>
   <path fill="#d86e6e" stroke="#000000" stroke-width="0.1" stroke-linecap="square" stroke-miterlimit="10" id="path21" d="m227.475006,271.815979c-0.197998,-3.559998 4.621002,-7.687988 6.91301,-9.987976c-2.180008,-1.032013 -4.361008,-2.065002 -6.541,-3.098022c-1.544006,-0.730988 -2.854004,2.123016 -3.915009,3.183014c-2.380005,2.377991 -4.850006,6.838989 -4.527008,10.287994"/>
   <path stroke="#000000" fill="#d86e6e" id="path23" d="m234.388,277.195007c4.026001,-0.554993 7.554001,-3.794983 9.222992,-7.299011c1.249008,-2.621979 0.835007,-2.669983 -1.804993,-3.424988c-3.317993,-0.946991 -6.636002,-1.895996 -9.953003,-2.843018c-1.373993,-0.392975 -2.222,1.877014 -2.557999,3.209015c-0.365005,1.446014 -2.421005,4.322998 -2.207993,5.748016c0.192001,1.277985 2.416992,2.212982 3.543991,2.589966c1.029007,0.345032 3.84201,2.682007 3.757004,2.02002"/>
   <path fill="#d86e6e" stroke="#000000" stroke-width="0.1" stroke-linecap="square" stroke-miterlimit="10" id="path25" d="m234.388,277.195007c3.763,-0.518982 10.929993,-5.552979 9.990005,-9.987976"/>
   <path fill="#d86e6e" stroke="#000000" stroke-width="0.1" stroke-linecap="square" stroke-miterlimit="10" id="path27" d="m327.35498,100.479996c7.450012,1.856003 15.963013,2.898003 23.596008,1.949005c1.545013,-0.192001 9.921021,-1.496002 10.980011,-0.413002c1.902008,1.945999 -6.93399,5.879997 -8.248993,6.444c-2.614014,1.120003 -6.06601,2.775002 -8.953003,2.775002c-4.042999,0 -8.085999,0 -12.127991,0c-3.843994,0 -8.032013,-1.248001 -11.798035,-2.003006c-2.799988,-0.560989 -8.669983,-1.028 -10.734985,-2.98999"/>
   <path fill="#d86e6e" stroke="#000000" stroke-width="0.1" stroke-linecap="square" stroke-miterlimit="10" id="path29" d="m299.700012,112.387001c3.651978,3.385002 10.628967,4.898003 15.209991,6.618004c5.199982,1.951996 11.254974,2.219994 16.761993,2.219994c2.35498,0 5.339996,-1.181999 7.294983,-2.489998c2.934021,-1.962997 0.400024,-4.426003 -2.243958,-4.426003c-5.998016,0 -11.531006,-1.322998 -17.43103,-2.303001"/>
   <path fill="#d86e6e" stroke="#000000" stroke-width="0.1" stroke-linecap="square" stroke-miterlimit="10" id="path31" d="m298.161987,116.613998c3.390015,2.035004 7.05603,3.249001 10.796997,4.497002c1.926025,0.642998 3.838013,1.279999 5.723999,2.034004c1.390015,0.556 4.313019,0.839996 5.373016,1.920998c3.186005,3.251991 -6.112,3.185005 -7.682007,3.071999c-3.713989,-0.264999 -6.501007,-1.749001 -9.988007,-2.688004"/>
   <path fill="#d86e6e" stroke="#000000" stroke-width="0.1" stroke-linecap="square" stroke-miterlimit="10" id="path33" d="m285.871002,120.455002c2.722992,1.373001 19.309998,6.858994 15.367004,11.908997c-2.26001,2.893997 -8.588013,0.981003 -11.286011,0.080002c-3.705994,-1.238007 -7.110992,-2.658997 -10.615997,-4.306"/>
   <path fill="#d86e6e" stroke="#000000" stroke-width="0.1" stroke-linecap="square" stroke-miterlimit="10" id="path35" d="m273.955994,129.291992c2.424011,2.007004 6.13501,2.578003 8.838989,4.223999c1.729004,1.052002 6.231018,4.996002 1.538025,4.996002c-1.485016,0 -2.985016,0.567017 -4.614014,0.384003c-1.947021,-0.218994 -3.779999,-1.009003 -5.613007,-1.617996c-3.951019,-1.311996 -7.093994,-3.780991 -10.519012,-6.065002"/>
   <path fill="#d86e6e" stroke="#000000" stroke-width="0.1" stroke-linecap="square" stroke-miterlimit="10" id="path37" d="m293.554016,88.954002c4.240967,2.130997 8.717987,3.487999 13.056976,5.377998c2.993988,1.304001 9.303986,5.160995 2.30899,6.147995c-9.905975,1.398003 -20.537964,-3.296997 -29.583984,-6.916992"/>
   <path fill="#d86e6e" stroke="#000000" stroke-width="0.1" stroke-linecap="square" stroke-miterlimit="10" id="path39" d="m285.481018,98.558998c3.342987,1.834999 7.338989,2.595001 10.759979,4.224007c1.223999,0.582993 4.360992,1.447998 4.997009,2.688995c0.782013,1.528 -0.511993,1.320999 -2.011993,1.821999c-4.164001,1.390999 -8.328003,-1.041 -12.064026,-2.286003c-4.187988,-1.395996 -8.219971,-3.872993 -12.050995,-6.066994"/>
   <path fill="#d86e6e" stroke="#000000" stroke-width="0.1" stroke-linecap="square" stroke-miterlimit="10" id="path41" d="m270.114014,100.096001c3.880981,2.051003 8.21698,3.552002 11.869995,5.987999c1.880005,1.253998 9.636993,3.874001 9.26001,6.688004c-0.467041,3.487991 -8.04303,1.166 -9.844025,0.264999c-4.204987,-2.104004 -7.819977,-5.159004 -12.050995,-7.179001"/>
   <path fill="#d86e6e" stroke="#000000" stroke-width="0.1" stroke-linecap="square" stroke-miterlimit="10" id="path43" d="m270.503998,110.466003c2.016998,2.391998 5.029022,4.281998 7.29599,6.531998c1.338013,1.328003 3.958008,3.841995 0.77002,3.841995c-5.170013,0 -11.754028,-5.115997 -14.983002,-8.834991"/>
   <path fill="#d86e6e" stroke="#000000" stroke-width="0.1" stroke-linecap="square" stroke-miterlimit="10" id="path45" d="m260.127014,113.925003c0.967987,1.692001 10.923981,9.046997 9.029968,10.948997c-2.615967,2.625999 -8.265991,-1.899002 -10.567993,-3.265999"/>
   <path fill="#d86e6e" stroke="#000000" stroke-width="0.1" stroke-linecap="square" stroke-miterlimit="10" id="path47" d="m252.828003,120.455002c0.772003,0.722 6.528015,8.067001 3.648987,8.067001c-1.875992,0 -5.98999,-0.731003 -6.719986,-2.305008"/>
   <path fill="#d86e6e" stroke="#000000" stroke-width="0.1" stroke-linecap="square" stroke-miterlimit="10" id="path49" d="m243.223007,125.066002c0.930008,1.633003 2.693008,2.695 2.693008,4.609993c0,2.065002 -1.930008,2.89801 -3.844009,3.074005"/>
   <path fill="#d86e6e" stroke="#000000" stroke-width="0.1" stroke-linecap="square" stroke-miterlimit="10" id="path51" d="m248.985001,135.820999c-0.970993,-0.555008 -3.203003,-0.705994 -4.223999,-0.192001c-1.180008,0.593002 -2.369995,2.661011 -0.382996,3.266998"/>
   <path fill="#d86e6e" stroke="#000000" stroke-width="0.1" stroke-linecap="square" stroke-miterlimit="10" id="path53" d="m254.365997,130.05899c-1.22699,0.555008 -2.962997,-0.026993 -3.843994,1.154007c-0.679001,0.910004 -0.324997,2.335999 0.770996,2.880005c1.033005,0.513 1.585007,1.319 2.688995,1.728989c1.596008,0.59201 3.353027,0.38501 5.080017,0.38501c2.797974,0 7.667969,0.854996 3.368988,-2.690002c-2.457001,-2.026993 -4.921997,-3.072998 -8.065002,-3.072998"/>
   <path stroke="#000000" fill="#d86e6e" id="path55" d="m278.953003,82.423004c-3.096985,0.157997 -5.509003,-0.541 -8.447998,0.768997c-2.962006,1.32 -5.013,3.858002 -7.302002,6.145996c1.873993,-2.806999 3.496002,-7.095001 6.528992,-8.834999c1.127014,-0.646996 3.507996,-1.432999 4.812988,-0.648994c0.951019,0.569992 4.267029,3.004997 4.40802,2.569"/>
   <path fill="#d86e6e" stroke="#000000" stroke-width="0.1" stroke-linecap="square" stroke-miterlimit="10" id="path57" d="m136.80899,100.096001c-7.62999,2.178001 -15.570992,1.919998 -23.432991,1.919998c-2.301003,0 -9.292999,-1.842003 -10.948997,-0.193001c-1.686005,1.679001 7.406998,5.807999 8.445999,6.253998c7.024002,3.014999 13.474998,3.023003 21.080994,2.437004c4.007004,-0.308998 7.854996,-0.876999 11.794998,-1.667c2.795013,-0.559998 8.675003,-1.028 10.733002,-2.990005"/>
   <path fill="#d86e6e" stroke="#000000" stroke-width="0.1" stroke-linecap="square" stroke-miterlimit="10" id="path59" d="m164.471008,112.003998c-8.96701,5.792999 -20.42601,8.835007 -31.033005,8.835007c-2.455002,0 -5.820007,-1.137009 -7.854004,-2.491005c-3.119995,-2.077003 -0.515999,-4.131996 2.007004,-4.424004c5.955002,-0.688995 11.696991,-1.307999 17.669998,-2.306"/>
   <path fill="#d86e6e" stroke="#000000" stroke-width="0.1" stroke-linecap="square" stroke-miterlimit="10" id="path61" d="m166.009003,116.229004c-3.615997,1.705994 -6.986008,3.222992 -10.802002,4.496994c-1.921005,0.641998 -3.792999,1.398003 -5.716995,2.035004c-1.16301,0.384995 -4.570007,0.988998 -5.380005,1.920998c-2.839996,3.271004 6.974991,3.344002 8.464996,2.973c1.524002,-0.378998 3.612,-0.173004 4.981003,-0.861c1.283005,-0.644997 3.113007,-1.316002 4.610992,-1.727997"/>
   <path fill="#d86e6e" stroke="#000000" stroke-width="0.1" stroke-linecap="square" stroke-miterlimit="10" id="path63" d="m178.302002,120.070999c-3.080002,1.541 -18.434998,6.216995 -14.984009,11.525009c2.01001,3.089996 8.548004,1.378998 11.286011,0.463989c3.684998,-1.231003 7.136993,-2.569 10.613007,-4.306"/>
   <path fill="#d86e6e" stroke="#000000" stroke-width="0.1" stroke-linecap="square" stroke-miterlimit="10" id="path65" d="m190.209991,128.906998c-2.804993,1.334 -5.815994,2.561996 -8.452988,4.227005c-1.703003,1.075989 -6.276001,4.993988 -1.537003,4.993988c3.639008,0 6.67099,0.175018 10.290009,-1.271988c3.921997,-1.570007 7.084991,-3.423996 10.072998,-6.412003"/>
   <path fill="#d86e6e" stroke="#000000" stroke-width="0.1" stroke-linecap="square" stroke-miterlimit="10" id="path67" d="m170.619003,88.57c-1.666,1.424004 -4.389999,1.789001 -6.331009,2.953003c-1.946991,1.168999 -4.530991,1.512993 -6.588989,2.544998c-1.643005,0.824997 -4.407013,1.016998 -5.136002,2.952995c-0.594009,1.576004 1.063004,3.075005 2.990997,3.075005c10.339996,0 20.094009,-3.088997 29.664001,-6.917"/>
   <path fill="#d86e6e" stroke="#000000" stroke-width="0.1" stroke-linecap="square" stroke-miterlimit="10" id="path69" d="m178.686005,98.173996c-1.964005,1.632004 -6.399002,2.751007 -8.824005,3.357002c-2.636993,0.659004 -5.561005,2.396004 -7.311996,4.327003c3.054001,2.222 9.832001,1.479004 12.969986,-0.406006c4.384003,-2.632996 9.436005,-4.329994 13.921021,-6.892998"/>
   <path fill="#d86e6e" stroke="#000000" stroke-width="0.1" stroke-linecap="square" stroke-miterlimit="10" id="path71" d="m194.052002,99.709999c-3.270004,2.596001 -8.290009,4.146004 -12.054001,6.027c-1.789001,0.895004 -9.671005,4.365997 -8.692001,7.035004c1.173004,3.200996 8.529999,0.536995 10.416992,-0.406006c3.550018,-1.774002 8.192017,-4.226997 11.100006,-6.893997"/>
   <path fill="#d86e6e" stroke="#000000" stroke-width="0.1" stroke-linecap="square" stroke-miterlimit="10" id="path73" d="m193.669006,110.083c-1.999008,2.334999 -4.851013,3.805 -6.917999,6.144997c-0.742004,0.840004 -3.876007,4.227005 -1.150009,4.227005c5.940002,0 11.514999,-5.371002 15.365005,-9.220001"/>
   <path fill="#d86e6e" stroke="#000000" stroke-width="0.1" stroke-linecap="square" stroke-miterlimit="10" id="path75" d="m204.039001,113.541c-1.714005,4.166 -8.834991,5.987 -8.834991,10.947998c0,1.373001 4.375,0.143997 5.080994,-0.093002c2.165985,-0.722992 3.717987,-1.978996 5.291992,-3.556992"/>
   <path fill="#d86e6e" stroke="#000000" stroke-width="0.1" stroke-linecap="square" stroke-miterlimit="10" id="path77" d="m211.339996,120.070999c-0.923996,1.542 -5.757996,6.681999 -3.841995,8.067001c1.649002,1.192001 6.007996,-1.709999 7.30101,-2.305"/>
   <path fill="#d86e6e" stroke="#000000" stroke-width="0.1" stroke-linecap="square" stroke-miterlimit="10" id="path79" d="m220.944,124.681999c-0.755997,1.608002 -2.690002,2.626999 -2.690002,4.609001c0,1.940002 2.557007,2.404007 4.227005,3.072998"/>
   <path fill="#d86e6e" stroke="#000000" stroke-width="0.1" stroke-linecap="square" stroke-miterlimit="10" id="path81" d="m215.181,135.436996c1.479004,-0.490005 2.707001,-1.108002 4.223999,-0.382004c1.651001,0.789001 2.127991,2.227005 0.386002,3.457001"/>
   <path fill="#d86e6e" stroke="#000000" stroke-width="0.1" stroke-linecap="square" stroke-miterlimit="10" id="path83" d="m209.800995,129.675003c3.5,-0.621994 5.804016,1.643997 3.076004,4.225998c-2.249008,2.128998 -4.681992,1.919998 -7.684006,1.919998c-3.009003,0 -7.625992,0.438004 -3.218994,-2.867996c2.605011,-1.95401 4.981995,-2.895004 8.212006,-2.895004"/>
   <path stroke="#000000" fill="#d86e6e" id="path85" d="m185.21701,82.038002c2.953979,0 5.994995,-0.942001 8.834991,0.385994c2.78299,1.301003 5.049988,4.197006 6.914001,6.531006c-1.402008,-2.805 -3.565002,-6.938004 -6.145004,-8.837006c-3.285995,-2.418999 -6.608994,0.210007 -9.603989,1.920006"/>
   <path stroke="#000000" fill="#d86e6e" id="path87" d="m207.11499,184.997009c-0.972992,-8.146011 12.66301,-10.251007 18.402008,-10.554016c10.313995,-0.541992 20.522995,-1.177002 30.798004,-2.204987c8.450012,-0.846008 17.987976,-3.798004 23.786011,-10.175003c5.626984,-6.188004 0.460999,-18.761002 -6.94101,-21.544998c-8.165009,-3.070007 -16.074982,-5.921997 -24.244003,-1.252014c-1.410004,0.806 -4.078995,1.718018 -4.636993,3.387009c-0.660004,1.975998 2.097992,3.298996 3.796997,3.582993c4.474991,0.746002 8.715988,0.800018 13.233017,0.479004c3.820984,-0.272003 9.823975,0.833008 10.477966,5.421005c0.71701,5.039001 -3.074982,8.375992 -7.367981,10.091995c-3.730011,1.490997 -9.17601,1.393005 -13.170013,2.018005c-4.391998,0.686996 -8.765991,1.079987 -13.187988,1.520996c-4,0.399994 -8.124008,0.06601 -12.125,0.403992c-4.303009,0.363007 -8.364014,0.601013 -12.649994,1.456009c-9.001007,1.796005 -17.314011,8.466995 -17.314011,18.137009c3.714996,-0.256012 7.427994,-0.512009 11.14299,-0.766998"/>
   <path fill="#d86e6e" stroke="#000000" stroke-width="0.1" stroke-linecap="square" stroke-miterlimit="10" id="path89" d="m207.11499,184.997009c-0.972992,-8.146011 12.66301,-10.251007 18.402008,-10.554016c10.313995,-0.541992 20.522995,-1.177002 30.798004,-2.204987c8.450012,-0.846008 17.987976,-3.798004 23.786011,-10.175003c5.626984,-6.188004 0.460999,-18.761002 -6.94101,-21.544998c-8.165009,-3.070007 -16.074982,-5.921997 -24.244003,-1.252014c-1.410004,0.806 -4.078995,1.718018 -4.636993,3.387009c-0.660004,1.975998 2.097992,3.298996 3.796997,3.582993c4.474991,0.746002 8.715988,0.800018 13.233017,0.479004c3.820984,-0.272003 9.823975,0.833008 10.477966,5.421005c0.71701,5.039001 -3.074982,8.375992 -7.367981,10.091995c-3.730011,1.490997 -9.17601,1.393005 -13.170013,2.018005c-4.391998,0.686996 -8.765991,1.079987 -13.187988,1.520996c-4,0.399994 -8.124008,0.06601 -12.125,0.403992c-4.303009,0.363007 -8.364014,0.601013 -12.649994,1.456009c-9.001007,1.796005 -17.314011,8.466995 -17.314011,18.137009"/>
   <path stroke="#000000" fill="#d86e6e" id="path91" d="m225.554993,187.300003c-0.639984,-29.837006 -1.280991,-59.674004 -1.92099,-89.511002c5.377991,0.127998 10.755997,0.255997 16.134003,0.384995c-0.536011,17.704002 -1.072006,35.406998 -1.609009,53.111008c-0.304993,10.05899 -0.608994,20.117996 -0.914001,30.177002c-0.054993,1.804993 -0.108994,3.608994 -0.164001,5.414001c-0.005997,0.19899 -10.391998,0.386993 -11.526001,0.423996"/>
   <path fill="#d86e6e" stroke="#000000" stroke-width="0.1" stroke-linecap="square" stroke-miterlimit="10" id="path93" d="m225.554993,187.300003c-0.639984,-29.837006 -1.280991,-59.674004 -1.92099,-89.511002c5.377991,0.127998 10.755997,0.255997 16.134003,0.384995c-0.896011,29.581009 -1.792007,59.162003 -2.688004,88.742996"/>
   <path stroke="#000000" fill="#d86e6e" id="path95" d="m236.311005,216.880997c-0.564011,20.60701 -1.128998,41.215988 -1.693008,61.822983c-0.203995,7.434021 -0.406998,14.866028 -0.610992,22.299011c-0.02301,0.832031 -4.930008,0.220032 -5.365005,0.110016c-0.681,-0.17099 -0.417999,-0.972015 -0.432999,-1.622009c-0.085999,-3.75 -0.171997,-7.5 -0.257996,-11.251007c-0.388,-16.911011 -0.775009,-33.822983 -1.164001,-50.734985c-0.137009,-5.965012 -0.272995,-11.930008 -0.410004,-17.895004c-0.00499,-0.229004 -0.164993,-2.341003 0.035004,-2.348999c3.300003,-0.126007 6.598999,-0.253006 9.899002,-0.380005"/>
   <path fill="#d86e6e" stroke="#000000" stroke-width="0.1" stroke-linecap="square" stroke-miterlimit="10" id="path97" d="m236.311005,216.880997c-0.564011,20.60701 -1.128998,41.215988 -1.693008,61.822983c-0.203995,7.434021 -0.406998,14.866028 -0.610992,22.299011c-0.02301,0.832031 -4.930008,0.220032 -5.365005,0.110016c-0.681,-0.17099 -0.417999,-0.972015 -0.432999,-1.622009c-0.085999,-3.75 -0.171997,-7.5 -0.257996,-11.251007c-0.542007,-23.65799 -1.085007,-47.315994 -1.626999,-70.974991"/>
   <path fill="#d86e6e" stroke="#000000" stroke-width="0.1" stroke-linecap="square" stroke-miterlimit="10" id="path99" d="m223.634003,103.552002c4.621002,2.770996 10.973999,3.213997 15.748993,0.384995"/>
   <path stroke="#000000" fill="#d86e6e" id="path101" d="m231.699005,100.862c7.986008,0 14.600006,-6.022995 14.600006,-14.212997c0,-8.848999 -6.932999,-14.599998 -15.410004,-14.599998c-7.472,0 -14.938995,7.659996 -13.652008,15.410995c0.584015,3.515999 1.415009,7.955002 4.766022,9.966003c1.624969,0.976997 8.312973,5.445999 9.695984,3.435997"/>
   <path fill="#d86e6e" stroke="#000000" stroke-width="0.1" stroke-linecap="square" stroke-miterlimit="10" id="path103" d="m231.699005,100.862c7.986008,0 14.600006,-6.022995 14.600006,-14.212997c0,-8.407005 -6.568008,-14.599998 -14.839005,-14.599998c-7.774994,0 -14.511993,6.611 -14.357986,14.599998c0.168991,8.737 6.765991,13.289993 14.596985,14.597"/>
   <path stroke="#000000" fill="#d86e6e" id="path105" d="m241.302994,257.218994c4.487991,-5.572006 5.272003,-14.09201 0.769989,-19.979004c-5.238998,-6.850006 -14.459991,-8.018997 -20.059982,-14.417007c-3.184021,-3.638992 -5.65802,-7.435989 -0.688019,-10.936996c3.947998,-2.780991 9.123001,-3.388992 13.693008,-4.341003c8.328995,-1.732986 17.128006,-3.411987 24.070999,-8.613983c3.799988,-2.847015 6.770996,-5.928009 8.402008,-10.496002c1.774994,-4.973999 0.277008,-8.509003 -2.134003,-12.993011c-3.694,-6.869995 -16.137009,-9.654999 -23.20401,-9.654999c-8.022995,0 -16.899994,0.001007 -24.856995,-1.242996c-4.860992,-0.759995 -9.708008,-1.649002 -14.608002,-2.095001c-4.031998,-0.366989 -8.515991,-3.153 -9.678009,-7.212997c-3.431,-11.996002 14.165009,-7.899994 20.205017,-8.906006c2.923004,-0.487 10.130997,-1.893997 5.806,-5.897995c-2.472015,-2.28801 -8.244995,-4.225998 -11.568008,-4.225998c-8.686996,0 -17.172989,2.869995 -22.585999,9.832993c-2.572006,3.307999 -3.802002,7.688004 -2.469009,11.682007c1.640015,4.916 5.063019,7.084 9.46701,9.401993c16.406006,8.636002 36.886002,3.511002 54.240005,8.076004c3.209991,0.844009 10.065994,2.422989 10.591995,6.565994c0.681,5.375 -2.384003,8.142014 -6.399994,11.262009c-6.908005,5.367004 -17.854004,5.852005 -26.119003,7.604004c-5.298004,1.123001 -13.600006,4.520996 -15.998001,9.909988c-2.971008,6.679001 -1.286011,14.160004 5.184998,18.318008c5.306,3.409012 10.708008,6.562012 16.029999,9.920013c2.621994,1.654999 3.882004,3.485992 5.953995,5.569c1.277008,1.283997 -0.113998,7.934998 -0.190994,9.797989c1.585007,0.115005 5.936005,3.255005 6.145004,3.072998"/>
   <path fill="#d86e6e" stroke="#000000" stroke-width="0.1" stroke-linecap="square" stroke-miterlimit="10" id="path107" d="m241.302994,257.218994c4.487991,-5.572006 5.272003,-14.09201 0.769989,-19.979004c-5.238998,-6.850006 -14.459991,-8.018997 -20.059982,-14.417007c-3.184021,-3.638992 -5.65802,-7.435989 -0.688019,-10.936996c3.947998,-2.780991 9.123001,-3.388992 13.693008,-4.341003c8.328995,-1.732986 17.128006,-3.411987 24.070999,-8.613983c3.799988,-2.847015 6.770996,-5.928009 8.402008,-10.496002c1.774994,-4.973999 0.277008,-8.509003 -2.134003,-12.993011c-3.694,-6.869995 -16.137009,-9.654999 -23.20401,-9.654999c-8.022995,0 -16.899994,0.001007 -24.856995,-1.242996c-4.860992,-0.759995 -9.708008,-1.649002 -14.608002,-2.095001c-4.031998,-0.366989 -8.515991,-3.153 -9.678009,-7.212997c-3.431,-11.996002 14.165009,-7.899994 20.205017,-8.906006c2.923004,-0.487 10.130997,-1.893997 5.806,-5.897995c-2.472015,-2.28801 -8.244995,-4.225998 -11.568008,-4.225998c-8.686996,0 -17.172989,2.869995 -22.585999,9.832993c-2.572006,3.307999 -3.802002,7.688004 -2.469009,11.682007c1.640015,4.916 5.063019,7.084 9.46701,9.401993c16.406006,8.636002 36.886002,3.511002 54.240005,8.076004c3.209991,0.844009 10.065994,2.422989 10.591995,6.565994c0.681,5.375 -2.384003,8.142014 -6.399994,11.262009c-6.908005,5.367004 -17.854004,5.852005 -26.119003,7.604004c-5.298004,1.123001 -13.600006,4.520996 -15.998001,9.909988c-2.971008,6.679001 -1.286011,14.160004 5.184998,18.318008c5.306,3.409012 10.708008,6.562012 16.029999,9.920013c2.621994,1.654999 3.882004,3.485992 5.953995,5.569c1.277008,1.283997 -0.113998,7.934998 -0.190994,9.797989c2.173996,0.156006 4.552002,1.940002 6.145004,3.457001"/>
   <path stroke="#000000" fill="#d86e6e" id="path109" d="m234.388,297.171997c2.022003,1.070984 4.610992,-1.338989 4.610992,-3.371002c0,-2.707977 -0.396988,-4.444 -2.772995,-6.033997c-4.061996,-2.720001 -7.903992,-4.71701 -11.440994,-8.266998c-0.951004,1.796997 -2.304001,4.109985 -2.304001,6.132996c0,2.845001 0.574997,3.569 2.104996,5.863007c0.588013,0.881989 3.753006,2.074982 4.809998,2.604004c1.654999,0.826996 3.289001,1.936981 4.992004,3.071991"/>
   <path fill="#d86e6e" stroke="#000000" stroke-width="0.1" stroke-linecap="square" stroke-miterlimit="10" id="path111" d="m234.388,297.171997c2.022003,1.070984 4.610992,-1.338989 4.610992,-3.371002c0,-2.707977 -0.396988,-4.444 -2.772995,-6.033997c-4.061996,-2.720001 -7.903992,-4.71701 -11.440994,-8.266998c-0.951004,1.796997 -2.304001,4.109985 -2.304001,6.132996c0,2.845001 0.574997,3.569 2.104996,5.863007c0.588013,0.881989 3.753006,2.074982 4.809998,2.604004c1.654999,0.826996 3.289001,1.936981 4.992004,3.071991"/>
   <path stroke="#000000" fill="#d86e6e" id="path113" d="m208.266998,139.662994c0.161011,0.239014 -0.149994,0.515015 0.382996,0.38501c1.880005,-2.054001 -2.954987,-1.451996 -0.768997,0c0.487,0.118988 0.279007,-0.101013 0.386002,-0.38501"/>
   <path stroke="#000000" fill="#d86e6e" id="path115" d="m257.440002,140.432999c1.526001,0.199005 1.330017,-1.046005 0.382996,-1.154007c-0.98999,-0.112 -1.794006,1.029007 -0.382996,1.154007"/>
   <path stroke="#000000" fill="#d86e6e" id="path117" d="m241.690994,87.033997c2.186996,3.690002 -4.150009,9.125 -6.919006,10.372002c3.022003,-0.416 4.229004,-1.919998 6.231995,-3.926994c1.050018,-1.052002 2.280014,-5.723007 0.687012,-6.445007"/>
   <path stroke="#000000" fill="#d86e6e" id="path119" d="m226.322998,217.266006c-0.195999,-7.641998 -0.391998,-15.283997 -0.587997,-22.925995c-0.020004,-0.758011 -0.539001,-7.028 0.112991,-7.048996c3.744003,-0.125 7.488007,-0.249008 11.231003,-0.373016c-0.188995,7.39801 -0.37999,14.796005 -0.569,22.195007c-0.03299,1.281006 0.688004,6.77301 -0.19899,7.768997c-0.479004,0.537003 -4.278,0.165009 -4.994003,0.192001c-1.665009,0.063995 -3.328995,0.126999 -4.994003,0.192001"/>
   <line fill="#d86e6e" stroke="#000000" stroke-width="0.1" stroke-linecap="square" stroke-miterlimit="10" y2="216.881" y1="186.533" x2="236.311" x1="237.08" id="line121"/>
   <line fill="#d86e6e" stroke="#000000" stroke-width="0.1" stroke-linecap="square" stroke-miterlimit="10" y2="187.3" y1="217.266" x2="225.555" x1="226.323" id="line123"/>
   <path stroke="#000000" fill="#d86e6e" id="path125" d="m257.822998,216.496002c-2.710999,-13.587997 -17.918991,-16.074005 -29.578995,-18.054993c-6.403,-1.088013 -11.270004,-2.563019 -16.429001,-6.687012c-0.688004,-0.549988 -5.067993,-6.733002 -4.779999,-6.752991c-3.688004,0.253998 -7.375,0.506989 -11.062012,0.760986c0.944,3.300003 1.639008,5.943008 3.916016,8.602005c2.222992,2.597 4.613983,4.511002 7.453003,6.403c5.337982,3.561005 12.375,5.292999 18.589996,6.459c5.412994,1.016998 12.372986,1.445007 16.910995,4.852005c1.091995,0.819 2.332993,1.414001 2.791992,2.79599c0.450012,1.360001 0.274002,2.006012 1.76001,2.006012c1.610992,0.000992 10.018997,0.787994 10.427994,-0.384003"/>
   <path fill="#d86e6e" stroke="#000000" stroke-width="0.1" stroke-linecap="square" stroke-miterlimit="10" id="path127" d="m195.972,185.763c1.564011,5.468002 3.80101,9.544006 8.453003,13.061005c4.330994,3.274002 9.796005,5.435989 14.981995,6.916c8.110001,2.314987 23.736008,1.638992 26.891006,11.140991"/>
   <path fill="#d86e6e" stroke="#000000" stroke-width="0.1" stroke-linecap="square" stroke-miterlimit="10" id="path129" d="m257.822998,216.496002c-4.938004,-24.747009 -42.011993,-9.695999 -50.708008,-31.5"/>
   <path stroke="#000000" fill="#d86e6e" id="path131" d="m234.772003,267.59198c2.270996,-3.002991 -7.227997,-5.087982 -9.21701,-6.145996c-2.902985,-1.544983 -7.244995,-4.677979 -7.819992,-8.109985c-0.37999,-2.263992 1.147995,-2.220993 3.12999,-3.251999c2.074005,-1.078995 4.149017,-2.158005 6.223007,-3.237c-1.435989,3.970993 1.798004,4.822006 4.910004,5.860992c3.300995,1.103012 5.886002,2.800003 8.921997,4.318985c2.382996,1.193024 3.955002,5.627014 3.841003,8.261017c-0.111008,2.57901 -1.453995,1.964996 -3.783997,2.062012c-2.067001,0.085999 -4.137009,0.212982 -6.205002,0.241974"/>
   <path fill="#d86e6e" stroke="#000000" stroke-width="0.1" stroke-linecap="square" stroke-miterlimit="10" id="path133" d="m244.378006,267.207001c2.778,-4.902008 -3.091995,-9.878021 -6.529999,-11.910004c-2.548996,-1.505997 -4.89299,-2.115997 -7.68399,-3.071991c-2.707001,-0.928009 -4.098007,-2.555008 -3.077011,-5.379013"/>
   <path fill="#d86e6e" stroke="#000000" stroke-width="0.1" stroke-linecap="square" stroke-miterlimit="10" id="path135" d="m234.772003,267.59198c1.617004,-2.138 -3.669006,-4.608978 -5.569,-4.608978c-5.005005,0 -10.990997,-6.803009 -11.718002,-11.141006"/>
   <path stroke="#000000" fill="#d86e6e" id="path137" d="m219.404999,272.200989c1.234009,7.944031 11.205994,12.901001 17.673996,16.137024c0.570999,-2.08902 1.919998,-2.971008 1.919998,-5.465027c0,-2.896973 -3.217987,-4.518005 -5.37999,-5.677979c-2.222,-1.192017 -3.830002,-3.234985 -5.762009,-4.609009c-1.143005,-0.812988 -1.371994,-0.722992 -3.222992,-0.634003c-1.742004,0.083008 -3.485992,0.165985 -5.229004,0.248993"/>
   <path fill="#d86e6e" stroke="#000000" stroke-width="0.1" stroke-linecap="square" stroke-miterlimit="10" id="path139" d="m219.404999,272.200989c1.234009,7.944031 11.205994,12.901001 17.673996,16.137024c0.365005,-1.335999 1.919998,-2.218018 1.919998,-3.757996c0,-2.577026 -0.47699,-3.636017 -2.304993,-5.465027c-2.751999,-2.752991 -7.695999,-3.310974 -9.220001,-7.299011"/>
  </g>
 </g>
</svg>